<?xml version="1.0" standalone="no"?>
<!DOCTYPE svg PUBLIC "-//W3C//DTD SVG 20010904//EN"
 "http://www.w3.org/TR/2001/REC-SVG-20010904/DTD/svg10.dtd">
<svg version="1.0" xmlns="http://www.w3.org/2000/svg"
 width="500.000000pt" height="500.000000pt" viewBox="0 0 500.000000 500.000000"
 preserveAspectRatio="xMidYMid meet">

<g transform="translate(0.000000,500.000000) scale(0.100000,-0.100000)"
fill="#000000" stroke="none">
<path d="M0 2500 l0 -2500 2500 0 2500 0 0 2500 0 2500 -2500 0 -2500 0 0
-2500z m1202 33 c120 -120 218 -226 218 -235 0 -26 -44 -52 -67 -39 -31 17
-433 426 -433 441 0 19 30 50 49 50 9 0 114 -98 233 -217z m202 201 c25 -24
19 -45 -26 -91 l-41 -42 41 -45 c43 -47 51 -73 30 -94 -28 -28 -64 -13 -126
52 -34 35 -62 72 -62 82 0 23 129 154 152 154 9 0 24 -7 32 -16z m253 -169
l48 -95 48 95 c47 94 49 96 80 93 l32 -3 3 -147 3 -148 -31 0 -30 0 0 98 -1
97 -40 -77 c-32 -61 -46 -78 -63 -78 -17 0 -30 17 -61 78 l-40 77 -3 -97 c-3
-97 -3 -98 -27 -98 l-25 0 0 150 0 150 30 0 c28 0 33 -7 77 -95z m383 -55 l0
-150 -25 0 -25 0 0 150 0 150 25 0 25 0 0 -150z m272 139 c69 -19 87 -104 32
-148 l-25 -20 31 -60 30 -61 -32 0 c-30 1 -35 5 -60 60 -20 45 -32 60 -47 60
-19 0 -21 -6 -21 -60 l0 -60 -30 0 -30 0 0 143 c0 79 3 147 7 150 10 11 104 8
145 -4z m385 -134 c28 -77 52 -143 52 -147 1 -5 -12 -8 -27 -8 -23 0 -30 6
-41 35 -12 34 -14 35 -67 35 -53 0 -55 -1 -70 -35 -11 -27 -20 -35 -39 -35
-14 0 -25 3 -25 7 0 4 23 72 52 151 l51 143 31 -3 c29 -3 32 -8 83 -143z m363
130 c27 -14 60 -51 60 -67 0 -16 -53 -7 -77 12 -34 27 -76 25 -110 -4 -24 -21
-28 -31 -28 -80 0 -44 5 -60 23 -78 31 -31 98 -30 124 2 28 35 23 50 -17 50
-28 0 -35 4 -35 20 0 18 7 20 65 20 l65 0 0 -80 c0 -78 -1 -80 -24 -80 -13 0
-27 7 -30 16 -6 15 -8 15 -26 -1 -26 -23 -94 -24 -137 -1 -43 22 -67 69 -67
131 0 61 24 109 67 135 38 24 106 26 147 5z m380 -10 c0 -24 -2 -25 -70 -25
l-70 0 0 -40 0 -40 65 0 c58 0 65 -2 65 -20 0 -18 -7 -20 -65 -20 l-65 0 0
-45 0 -45 70 0 c63 0 70 -2 70 -20 0 -19 -7 -20 -95 -20 l-95 0 0 150 0 150
95 0 c95 0 95 0 95 -25z m487 -120 c28 -77 52 -143 52 -147 1 -5 -12 -8 -27
-8 -23 0 -30 6 -41 35 -12 34 -14 35 -67 35 -53 0 -55 -1 -70 -35 -11 -27 -20
-35 -39 -35 -14 0 -25 3 -25 7 0 4 23 72 52 151 l51 143 31 -3 c29 -3 32 -8
83 -143z m213 -5 l0 -150 -30 0 -30 0 0 143 c0 79 3 147 7 150 3 4 17 7 30 7
l23 0 0 -150z m-3032 -73 c67 -68 122 -129 122 -135 0 -16 -37 -52 -52 -52
-18 0 -258 242 -258 259 0 20 30 51 50 51 9 0 71 -56 138 -123z m2497 -47 c0
-30 -35 -40 -55 -15 -10 12 -10 18 0 30 20 25 55 15 55 -15z m-2607 -36 c37
-25 46 -52 27 -80 -20 -31 -49 -31 -80 1 -31 30 -32 59 -3 79 28 20 28 20 56
0z"/>
<path d="M2220 2565 l0 -45 38 0 c43 0 62 14 62 45 0 31 -19 45 -62 45 l-38 0
0 -45z"/>
<path d="M2606 2570 c-3 -8 -12 -34 -20 -57 l-15 -43 41 0 c38 0 40 1 34 26
-14 53 -33 90 -40 74z"/>
<path d="M3836 2570 c-3 -8 -12 -34 -20 -57 l-15 -43 41 0 c38 0 40 1 34 26
-14 53 -33 90 -40 74z"/>
</g>
</svg>
